<?xml version="1.0" encoding="UTF-8" standalone="no"?>
<!DOCTYPE svg PUBLIC "-//W3C//DTD SVG 1.1//EN" "http://www.w3.org/Graphics/SVG/1.1/DTD/svg11.dtd">
<!-- Created with Vectornator (http://vectornator.io/) -->
<svg height="100%" stroke-miterlimit="10" style="fill-rule:nonzero;clip-rule:evenodd;stroke-linecap:round;stroke-linejoin:round;" version="1.1" viewBox="0 0 2526.65 2903.82" width="100%" xml:space="preserve" xmlns="http://www.w3.org/2000/svg" xmlns:vectornator="http://vectornator.io" xmlns:xlink="http://www.w3.org/1999/xlink">
<defs/>
<g id="Capa-1" vectornator:layerName="Capa 1">
<g opacity="1">
<g opacity="1">
<path d="M639.159 1788.86L1080.12 1255.02L947.11 1109.01C947.11 1109.01 933.019 1178.33 907.109 1207.17C881.198 1236.01 793.373 1227.98 746.733 1294.67C700.094 1361.37 693.184 1456.9 663.818 1489.35C634.453 1521.8 569.273 1530.5 545.058 1617.43C501.873 1772.45 639.159 1788.86 639.159 1788.86Z" fill="none" opacity="1" stroke="#ffffff" stroke-linecap="round" stroke-linejoin="miter" stroke-width="26.9876"/>
<path d="M801.41 983.479L1067.76 1296.01L1780.7 492.13C1780.7 492.13 1271.27 397.377 801.41 983.479Z" fill="#ffffff" fill-rule="nonzero" opacity="1" stroke="none"/>
<path d="M885.66 1371.89L885.309 1372.45" fill="none" opacity="1" stroke="#ffffff" stroke-linecap="round" stroke-linejoin="miter" stroke-width="26.9876"/>
<path d="M653.351 1643.12L653.543 1643.77" fill="none" opacity="1" stroke="#ffffff" stroke-linecap="round" stroke-linejoin="miter" stroke-width="26.9876"/>
<path d="M767.698 1515.04L767.604 1515.69" fill="none" opacity="1" stroke="#ffffff" stroke-linecap="round" stroke-linejoin="miter" stroke-width="26.9876"/>
<path d="M1733.41 934.947C1707 940.428 1654.58 939.989 1639.96 944.103C1625.35 948.217 1515.2 1078.08 1507.94 1100.78C1495.9 1138.4 1464.57 1157.13 1445.94 1251.68C1443.87 1262.16 1523.45 1292.93 1523.45 1292.93C1523.45 1292.93 1392.28 1317.19 1340.66 1355.91C1289.03 1394.63 1293.84 1545.96 1136.02 1595.59C994.411 1640.11 921.416 1660.89 921.416 1660.89C921.416 1660.89 835.269 1718.61 814.313 1813.89C793.357 1909.17 790.429 1938.93 790.429 1938.93C790.429 1938.93 765.028 1988.58 672 2055.39C646.215 2073.9 661.913 2133.63 648.137 2180.11C634.362 2226.59 618.506 2239.6 618.506 2239.6C618.506 2239.6 597.109 2311.17 622.438 2318.99C647.766 2326.81 768.125 2315.15 777.618 2307.31C787.111 2299.47 731.759 2262.23 731.759 2262.23L748.986 2220.76C748.986 2220.76 881.875 2184.45 1069.2 2017.1C1254.53 2157.13 1513.42 1997.16 1513.42 1997.16C1513.42 1997.16 1372.46 2053.28 1388.52 2199.19C1391.88 2244.35 1335.97 2226.44 1338.17 2264.02C1340.63 2306 1528.12 2381.05 1597.81 2147.44C1503.17 1991.45 1549.1 1884.17 1549.1 1884.17C1549.1 1884.17 1535.87 2044.82 1709.45 2178.22C1711.13 2211.45 1710.26 2244 1710.26 2244C1710.26 2244 1672.68 2205.73 1667.62 2217.29C1662.57 2228.85 1669.74 2301.85 1677.51 2305.68C1685.28 2309.52 1868.81 2328.9 1868.81 2328.9C1868.81 2328.9 2052.46 2117.71 1793.53 1670.11C1799.83 1615.88 1801.17 1537.59 1794.47 1523.62C1781.08 1494.26 1718.11 1369.84 1718.11 1369.84L1775.72 1420.17C1775.72 1420.17 1823.94 1520.82 1840.02 1524.31C1856.09 1527.81 1845.11 1417.16 1845.11 1417.16L1928.92 1406.12C1928.92 1406.12 1970.96 1291.79 1970.8 1281.54C1970.63 1271.29 1893.66 1284.47 1893.66 1284.47L1945.37 1248.57C1945.37 1248.57 1939.23 1190.19 1911.94 1194.46C1884.65 1198.73 1835.52 1209.41 1827.33 1202.29C1819.15 1195.17 1796.63 1176.66 1796.63 1176.66L1807.55 1158.86L1903.75 1154.59C1903.75 1154.59 1838.25 1067.01 1829.38 1060.6C1820.51 1054.2 1742.73 1063.45 1742.73 1063.45L1792.3 1039.16C1792.3 1039.16 1759.79 975.166 1733.41 934.947Z" fill="#ffffff" fill-rule="nonzero" opacity="1" stroke="none"/>
<path d="M1117.55 2022.04C1117.55 2022.04 1072.7 2069.91 987.883 2113.89C978.916 2140.15 983.489 2244.17 983.489 2244.17C983.489 2244.17 1115.99 2248.12 1125.07 2238.21C1134.15 2228.29 1066.05 2180.77 1066.05 2180.77C1066.05 2180.77 1136.66 2160.68 1174.35 2172.53C1198.96 2180.27 1284.74 2076.36 1284.74 2076.36C1284.74 2076.36 1219.78 2102.08 1117.55 2022.04Z" fill="#ffffff" fill-rule="nonzero" opacity="1" stroke="none"/>
</g>
</g>
</g>
</svg>
